<!-- Generator: Gravit.io --><svg xmlns="http://www.w3.org/2000/svg" style="isolation:isolate" viewBox="0 0 400 300" width="400pt" height="300pt" xmlns:xlink="http://www.w3.org/1999/xlink"><defs><clipPath id="_clipPath_5ymKW7Q494aZAKDW9xwV1N2jQJYh0QFL"><rect width="400" height="300"/></clipPath></defs><g clip-path="url(#_clipPath_5ymKW7Q494aZAKDW9xwV1N2jQJYh0QFL)"><rect style="fill:rgb(0,0,0)" width="400" height="300"/><path style="stroke:none;fill:#F7AF3C;stroke-miterlimit:10;" d="M 264.357 132.597 L 278.531 132.597 C 278.531 135.935 281.907 138.644 286.065 138.644 L 286.065 138.644 C 281.907 138.644 278.531 141.354 278.531 144.691 L 264.357 144.691 C 264.357 141.354 260.981 138.644 256.823 138.644 L 256.823 138.644 C 260.981 138.644 264.357 135.935 264.357 132.597 Z"/><path style="stroke:none;fill:#F7AF3C;stroke-miterlimit:10;" d="M 256.289 195.998 L 270.463 195.998 C 270.463 199.336 273.839 202.045 277.997 202.045 L 277.997 202.045 C 273.839 202.045 270.463 204.755 270.463 208.092 L 256.289 208.092 C 256.289 204.755 252.913 202.045 248.755 202.045 L 248.755 202.045 C 252.913 202.045 256.289 199.336 256.289 195.998 Z"/><path style="stroke:none;fill:#F7AF3C;stroke-miterlimit:10;" d="M 256.289 207.092 L 270.463 207.092 C 270.463 210.429 273.839 213.139 277.997 213.139 L 277.997 213.139 C 273.839 213.139 270.463 215.849 270.463 219.186 L 256.289 219.186 C 256.289 215.849 252.913 213.139 248.755 213.139 L 248.755 213.139 C 252.913 213.139 256.289 210.429 256.289 207.092 Z"/><path style="stroke:none;fill:#F7AF3C;stroke-miterlimit:10;" d="M 293.599 382.191 L 307.773 382.191 C 307.773 385.528 311.149 388.238 315.307 388.238 L 315.307 388.238 C 311.149 388.238 307.773 390.947 307.773 394.285 L 293.599 394.285 C 293.599 390.947 290.223 388.238 286.065 388.238 L 286.065 388.238 C 290.223 388.238 293.599 385.528 293.599 382.191 Z"/><path style="stroke:none;fill:#FFCC79;stroke-miterlimit:10;" d="M 232.996 138.614 L 339.134 138.614 C 344.314 138.614 348.52 142.82 348.52 148 L 348.52 148 C 348.52 153.18 344.314 157.386 339.134 157.386 L 232.996 157.386 C 227.816 157.386 223.61 153.18 223.61 148 L 223.61 148 C 223.61 142.82 227.816 138.614 232.996 138.614 Z"/><radialGradient id="_rgradient_0" gradientUnits="userSpaceOnUse" gradientTransform="matrix(1, 0, 0, 1, 0, 0)" cx="0.5" cy="0.5" r="0.5" fx="0.5" fy="0.5"><stop style="stop-color:rgb(255,59,95)" stop-opacity="0.6" offset="1.30435%"/><stop style="stop-color:rgb(255,59,95)" stop-opacity="0.2" offset="100%"/></radialGradient><circle fill="rgb(255, 59, 95)" stroke="url(#_rgradient_0)" stroke-linecap="square" stroke-linejoin="miter" stroke-miterlimit="3" stroke-width="40" cx="200" cy="150" r="41.5" vector-effect="non-scaling-stroke"/><path style="stroke:none;fill:#F7AF3C;stroke-miterlimit:10;" d="M 256.823 121.226 L 286.065 121.226 L 286.065 125.786 C 281.907 125.786 278.531 129.161 278.531 133.319 L 264.357 133.319 C 264.357 129.161 260.981 125.786 256.823 125.786 L 256.823 121.226 Z"/><path style="stroke:none;fill:#FFCC79;stroke-miterlimit:10;" d="M 179.386 108.5 L 285.523 108.5 C 290.704 108.5 294.91 112.706 294.91 117.886 L 294.91 117.886 C 294.91 123.067 290.704 127.273 285.523 127.273 L 179.386 127.273 C 174.206 127.273 170 123.067 170 117.886 L 170 117.886 C 170 112.706 174.206 108.5 179.386 108.5 Z"/><g><path style="stroke:none;fill:#F7AF3C;stroke-miterlimit:10;" d="M 71 182.773 L 119.91 182.773 L 119.91 192.159 C 119.91 197.339 115.704 201.545 110.523 201.545 L 80.386 201.545 C 75.206 201.545 71 197.339 71 192.159 L 71 182.773 Z"/><path style="stroke:none;fill:#F7AF3C;stroke-miterlimit:10;" d="M 71 174.386 L 71 174.386 C 71 179.574 75.212 183.786 80.4 183.786 L 80.4 183.786 C 75.212 183.786 71 187.998 71 193.186 L 71 193.186 C 71 187.998 66.788 183.786 61.6 183.786 L 61.6 183.786 C 66.788 183.786 71 179.574 71 174.386 Z"/><path style="stroke:none;fill:#F7AF3C;stroke-miterlimit:10;" d="M 119.91 174.386 L 119.91 174.386 C 119.91 179.574 124.122 183.786 129.31 183.786 L 129.31 183.786 C 124.122 183.786 119.91 187.998 119.91 193.186 L 119.91 193.186 C 119.91 187.998 115.698 183.786 110.51 183.786 L 110.51 183.786 C 115.698 183.786 119.91 179.574 119.91 174.386 Z"/><path style="stroke:none;fill:#FFCC79;stroke-miterlimit:10;" d="M 54.477 165 L 160.614 165 C 165.794 165 170 169.206 170 174.386 L 170 174.386 C 170 179.567 165.794 183.773 160.614 183.773 L 54.477 183.773 C 49.296 183.773 45.09 179.567 45.09 174.386 L 45.09 174.386 C 45.09 169.206 49.296 165 54.477 165 Z"/></g><path style="stroke:none;fill:#FFCC79;stroke-miterlimit:10;" d="M 184.231 213.139 L 290.369 213.139 C 295.549 213.139 299.755 217.345 299.755 222.525 L 299.755 222.525 C 299.755 227.706 295.549 231.912 290.369 231.912 L 184.231 231.912 C 179.051 231.912 174.845 227.706 174.845 222.525 L 174.845 222.525 C 174.845 217.345 179.051 213.139 184.231 213.139 Z"/><path style="stroke:none;fill:#FFCC79;stroke-miterlimit:10;" d="M 232.731 183.273 L 298.769 183.273 C 303.949 183.273 308.155 187.478 308.155 192.659 L 308.155 192.659 C 308.155 197.839 303.949 202.045 298.769 202.045 L 232.731 202.045 C 227.551 202.045 223.345 197.839 223.345 192.659 L 223.345 192.659 C 223.345 187.478 227.551 183.273 232.731 183.273 Z"/></g></svg>